<svg width="24" height="24" viewBox="0 0 24 24" fill="none" xmlns="http://www.w3.org/2000/svg">
<path d="M15 2.75C15 2.33579 15.3358 2 15.75 2C16.1642 2 16.5 2.33579 16.5 2.75V9.25C16.5 9.66421 16.1642 10 15.75 10C15.3358 10 15 9.66421 15 9.25V2.75Z" fill="#080808"/>
<path d="M19 2.75C19 2.33579 19.3358 2 19.75 2C20.1642 2 20.5 2.33579 20.5 2.75V9.25C20.5 9.66421 20.1642 10 19.75 10C19.3358 10 19 9.66421 19 9.25V2.75Z" fill="#080808"/>
<path fill-rule="evenodd" clip-rule="evenodd" d="M22.3231 19.8653L21 22C20.4724 22.8984 19.442 23.004 18.5 23C16.0871 23 11.8505 22.0869 7.13488 17.3707C1.20683 11.4407 1.12529 7.06041 1.76524 4.72819C1.94029 4.10443 2.30245 3.57267 2.86084 3.24432L4.638 2.17656C5.2034 1.83661 5.93615 2.00156 6.30137 2.55105L9.13557 6.80182C9.49194 7.34142 9.37438 8.06431 8.86544 8.46316L7.41909 9.61395C7.20923 9.77435 7.14953 10.0648 7.27915 10.295C8.09334 11.7802 9.12186 13.0399 10.3216 14.2402C11.5225 15.4419 12.782 16.4653 14.266 17.2836C14.4962 17.4115 14.7854 17.3506 14.9445 17.1408L16.0381 15.6358C16.4368 15.1266 17.1598 15.0092 17.6991 15.366L21.949 18.2008C22.4986 18.5663 22.6635 19.2996 22.3231 19.8653Z" fill="#080808"/>
</svg>
