<svg width="32" height="32" fill="none" viewBox="0 0 32 32">
  <path fill="#181818" fill-rule="evenodd" d="M8.451 11.1l1.691-.96S9.078 6.372 8.288 3.56C7.867 2.065 7.489 0 7.489 0s-1.2 1.281-3.664 6.148C1.361 11.015 1.9 16.885 2.384 19.191c.484 2.306 2.342 5.892 3.183 7.728A30.17 30.17 0 017.068 32s1.622-5.423 1.982-6.832c.36-1.409 1.6-5.653 1.251-5.721-.564.012-1.127.07-1.682.171 0 0-.29 2.007-.59 3.886s-.9 4.269-.9 4.269c-.519-1.1-.98-2.226-1.382-3.373-.6-1.75-2.282-5.785-2.282-9.669 0-7.77 3.4-11.853 3.4-11.853A10.2 10.2 0 017.8 6.311l.651 4.789zm6.777 3.4c0-.518 0-4.882-.009-5.5a1.25 1.25 0 01-1.13.3 1.4 1.4 0 01-1.5-1.577 1.576 1.576 0 011.361-1.409 1.78 1.78 0 011.23.339V2.131l-3.64 1.358-.014 11.682 3.155.009c.319 0 .547-.128.547-.683v.003zm-1-10.743v1.832c0 .3-1.71.854-1.71.854l.045-2.177c0-.47.378-.657 1.016-.956a.439.439 0 01.647.443l.002.004zM12.7 14.494c-.364 0-.228.352-.228-4.387 0-.427.137-.427.683-.427h.935v4.814H12.7zm1.914 11.042a12.055 12.055 0 01-.456 2.178 12.46 12.46 0 01-.638-1.921c-.273-1.11-.364-1.777-.592-2.717-.228-.94 0-1.11.5-1.238.5-.128.41.683.41.683l1.259-.113a1.777 1.777 0 00-.428-.823c-.494-.552-1.833-.045-1.833-.045a6.088 6.088 0 01.273-3.373c.721-2.162.82-1.323 1.139-.384a12.6 12.6 0 01.319 2.92l.949-.712s-.1-.756-.238-1.312a13.886 13.886 0 00-.894-2.3c-.384-.8-.793-.162-1.321.47a6.665 6.665 0 00-1.594 3.971c0 1.879.957 4.3 1.731 6.559.409 1.056.684 2.16.82 3.284 0 0 .046-.213.273-.939.227-.726.271-1 .571-2.345.286-.936.5-1.893.64-2.861a4.602 4.602 0 01-.922-.1c.031.372.041.745.03 1.118h.002zM16.359 2.5v1.436a1.027 1.027 0 011.048-.769L18 3.156v26.845l1.019.025V3.167h.791a1.074 1.074 0 01.737.781v-1.46l-4.19.011.002.001zm6.463 13.846a7.626 7.626 0 011.007-2.007c.43-.917.794-1.863 1.09-2.832.05-.3-.988-.046-.988-.046s0 .145-.05.785a8.23 8.23 0 01-.756 2.007s-.353-1.238-.655-2.305c-.302-1.067-.8-1.759-.4-2.615.447-.956.907.3.907.3l1.26-.269s.151-.3-.6-.811c-.615-.417-1.915.341-1.915.341a7.763 7.763 0 00.1-1.537 7.4 7.4 0 01.897-3.157c.6-1.452.807-.384.958.6.102.893.153 1.791.151 2.69l.5-.6c.5-.6.353-.726 0-2.177a9.493 9.493 0 00-1.058-2.562s-.953 1.149-1.458 1.918a7.415 7.415 0 00-1.058 3.672c.013 1.646.339 3.275.958 4.8.655 1.835 1.159 4.141 1.109 3.8l.001.005zM27 29V2.5h-1V29h-2.68V17.543h-.998V30H27c.195-.03.224-.119.392-.223.166-.105.31-.243.422-.405.186-.372 1.006-.273.913.38-.074.204-.21.379-.39.5-.18.12-.306.256-.523.248.285.376.593.735.921 1.074.324-.133.52-.422.734-.7a1.99 1.99 0 00.398-.952 1.373 1.373 0 00-1.367-1.51 1.564 1.564 0 00-.679.11c-.215.086-.664.308-.821.478z" clip-rule="evenodd"/>
</svg>
